<?xml version="1.0"?>
<svg xmlns="http://www.w3.org/2000/svg" viewBox="0 0 520 120" width="520" height="120" aria-label="Parham Khosh Solat">
  
  <svg x="18" y="18" width="84" height="84" viewBox="0 0 120 120"><line x1="23" y1="26" x2="55" y2="26" stroke="#f4f1ea" stroke-width="1.4" stroke-linecap="round" stroke-opacity="0.55"></line><line x1="23" y1="26" x2="55" y2="60" stroke="#f4f1ea" stroke-width="1.4" stroke-linecap="round" stroke-opacity="0.55"></line><line x1="23" y1="26" x2="55" y2="94" stroke="#f4f1ea" stroke-width="1.4" stroke-linecap="round" stroke-opacity="0.55"></line><line x1="23" y1="60" x2="55" y2="26" stroke="#f4f1ea" stroke-width="1.4" stroke-linecap="round" stroke-opacity="0.55"></line><line x1="23" y1="60" x2="55" y2="60" stroke="#f4f1ea" stroke-width="1.4" stroke-linecap="round" stroke-opacity="0.55"></line><line x1="23" y1="60" x2="55" y2="94" stroke="#f4f1ea" stroke-width="1.4" stroke-linecap="round" stroke-opacity="0.55"></line><line x1="23" y1="94" x2="55" y2="26" stroke="#f4f1ea" stroke-width="1.4" stroke-linecap="round" stroke-opacity="0.55"></line><line x1="23" y1="94" x2="55" y2="60" stroke="#f4f1ea" stroke-width="1.4" stroke-linecap="round" stroke-opacity="0.55"></line><line x1="23" y1="94" x2="55" y2="94" stroke="#f4f1ea" stroke-width="1.4" stroke-linecap="round" stroke-opacity="0.55"></line><line x1="65" y1="26" x2="96" y2="60" stroke="#f4f1ea" stroke-width="1.4" stroke-linecap="round" stroke-opacity="0.55"></line><line x1="65" y1="60" x2="96" y2="60" stroke="#f4f1ea" stroke-width="1.4" stroke-linecap="round" stroke-opacity="0.55"></line><line x1="65" y1="94" x2="96" y2="60" stroke="#f4f1ea" stroke-width="1.4" stroke-linecap="round" stroke-opacity="0.55"></line><circle cx="18" cy="26" r="5" fill="#f4f1ea"></circle><circle cx="18" cy="60" r="5" fill="#f4f1ea"></circle><circle cx="18" cy="94" r="5" fill="#f4f1ea"></circle><circle cx="60" cy="26" r="5" fill="#f4f1ea"></circle><circle cx="60" cy="60" r="5" fill="#f4f1ea"></circle><circle cx="60" cy="94" r="5" fill="#f4f1ea"></circle><circle cx="102" cy="60" r="8" fill="#5dc6ff"></circle></svg>
  <line x1="118" y1="36" x2="118" y2="84" stroke="#f4f1ea" stroke-opacity="0.20" stroke-width="1"></line>
  <text x="134" y="62" fill="#f4f1ea" font-family="Inter, system-ui, -apple-system, sans-serif" font-weight="600" font-size="26" letter-spacing="-0.65">Parham Khosh Solat</text>
  <text x="134" y="86" fill="#f4f1ea" fill-opacity="0.55" font-family="&#39;JetBrains Mono&#39;, ui-monospace, monospace" font-size="11" letter-spacing="2">DATA SCIENTIST · ML ENGINEER · DATA ANALYST</text>
</svg>