<?xml version="1.0"?>
<svg xmlns="http://www.w3.org/2000/svg" viewBox="0 0 120 120" width="120" height="120" aria-label="Parham Khosh Solat"><rect width="120" height="120" fill="#0a1422"></rect><line x1="23" y1="26" x2="55" y2="26" stroke="#f4f1ea" stroke-width="1.4" stroke-linecap="round" stroke-opacity="0.55"></line><line x1="23" y1="26" x2="55" y2="60" stroke="#f4f1ea" stroke-width="1.4" stroke-linecap="round" stroke-opacity="0.55"></line><line x1="23" y1="26" x2="55" y2="94" stroke="#f4f1ea" stroke-width="1.4" stroke-linecap="round" stroke-opacity="0.55"></line><line x1="23" y1="60" x2="55" y2="26" stroke="#f4f1ea" stroke-width="1.4" stroke-linecap="round" stroke-opacity="0.55"></line><line x1="23" y1="60" x2="55" y2="60" stroke="#f4f1ea" stroke-width="1.4" stroke-linecap="round" stroke-opacity="0.55"></line><line x1="23" y1="60" x2="55" y2="94" stroke="#f4f1ea" stroke-width="1.4" stroke-linecap="round" stroke-opacity="0.55"></line><line x1="23" y1="94" x2="55" y2="26" stroke="#f4f1ea" stroke-width="1.4" stroke-linecap="round" stroke-opacity="0.55"></line><line x1="23" y1="94" x2="55" y2="60" stroke="#f4f1ea" stroke-width="1.4" stroke-linecap="round" stroke-opacity="0.55"></line><line x1="23" y1="94" x2="55" y2="94" stroke="#f4f1ea" stroke-width="1.4" stroke-linecap="round" stroke-opacity="0.55"></line><line x1="65" y1="26" x2="96" y2="60" stroke="#f4f1ea" stroke-width="1.4" stroke-linecap="round" stroke-opacity="0.55"></line><line x1="65" y1="60" x2="96" y2="60" stroke="#f4f1ea" stroke-width="1.4" stroke-linecap="round" stroke-opacity="0.55"></line><line x1="65" y1="94" x2="96" y2="60" stroke="#f4f1ea" stroke-width="1.4" stroke-linecap="round" stroke-opacity="0.55"></line><circle cx="18" cy="26" r="5" fill="#f4f1ea"></circle><circle cx="18" cy="60" r="5" fill="#f4f1ea"></circle><circle cx="18" cy="94" r="5" fill="#f4f1ea"></circle><circle cx="60" cy="26" r="5" fill="#f4f1ea"></circle><circle cx="60" cy="60" r="5" fill="#f4f1ea"></circle><circle cx="60" cy="94" r="5" fill="#f4f1ea"></circle><circle cx="102" cy="60" r="8" fill="#5dc6ff"></circle></svg>